<?xml version="1.0" encoding="utf-8"?>
<!-- Generator: Adobe Illustrator 21.1.0, SVG Export Plug-In . SVG Version: 6.00 Build 0)  -->
<svg version="1.1" id="Capa_1" xmlns="http://www.w3.org/2000/svg" xmlns:xlink="http://www.w3.org/1999/xlink" x="0px" y="0px"
	 viewBox="0 0 512 512" style="enable-background:new 0 0 512 512;" xml:space="preserve">
<style type="text/css">
	.st0{fill:none;stroke:#C6C7C5;stroke-width:26.3622;stroke-linecap:round;}
	.st1{fill:none;stroke:#C6C7C5;stroke-width:21.9685;stroke-linecap:round;}
	.st2{fill:none;stroke:#C6C7C5;stroke-width:17.5748;stroke-linecap:round;stroke-linejoin:round;}
	.st3{fill:#DB3C00;}
</style>
<circle class="st0" cx="255.2" cy="256.3" r="237.6"/>
<path class="st1" d="M262.6,249.8c-89.1,67.6-70,140.8-69.1,144 M262.1,249.8c102-71.2,54.7-140.5,54.2-141.2l0,0"/>
<path class="st1" d="M322.4,393.9c0.9-3.2,20-76.5-69.1-144 M199.6,108.6L199.6,108.6c-0.5,0.7-47.9,70,54.2,141.2"/>
<path class="st2" d="M195.1,148.6c6.2,0,31,0,31,0"/>
<path class="st2" d="M289.7,148.6c6.2,0,31,0,31,0"/>
<path class="st2" d="M200.1,193.6c6.2,0,116.3,0,116.3,0"/>
<path class="st2" d="M201.3,324.6c6.2,0,115.7,0,115.7,0"/>
<path class="st2" d="M195.1,369.1c6.2,0,128.1,0,128.1,0"/>
<circle class="st3" cx="258.9" cy="146.9" r="14.4"/>
</svg>
